<svg xmlns="http://www.w3.org/2000/svg" xmlns:xlink="http://www.w3.org/1999/xlink" version="1.1" x="0px" y="0px"
     viewBox="0 0 100 90" enable-background="new 0 0 100 100" xml:space="preserve">
    <path fill="#ff0290" d="M20,76.001h0.48l16-4c0.303-0.091,0.578-0.255,0.8-0.479l40-39.997c0.442-0.347,0.71-0.87,0.733-1.432   c0.023-0.562-0.201-1.106-0.613-1.488l-12-11.999C65.037,16.219,64.53,16,64,16s-1.037,0.219-1.4,0.606l-40,39.997   c-0.234,0.231-0.4,0.521-0.48,0.84l-4,15.999c-0.201,0.674,0.001,1.404,0.52,1.879C18.978,75.729,19.471,75.976,20,76.001z    M64,20.846l9.16,9.159L68,35.165l-9.16-9.159L64,20.846z M56,28.845l9.16,9.159L36,67.162l-9.16-9.16L56,28.845z M25.08,61.922   l7,7l-9.32,2.319L25.08,61.922z"/>
</svg>