<svg xmlns="http://www.w3.org/2000/svg" xmlns:xlink="http://www.w3.org/1999/xlink" viewBox="0 0 34 34" version="1.1" x="0px" y="0px">
    <g transform="translate(1,-1019.3621)">
        <path style="" d="M 16 0 A 16 16 0 0 0 0 16 A 16 16 0 0 0 16 32 A 16 16 0 0 0 32 16 A 16 16 0 0 0 16 0 z M 8.5 8 L 14.5 8 A 0.50005 0.50005 0 0 1 15 8.5 L 15 14.5 A 0.50005 0.50005 0 0 1 14.5 15 L 8.5 15 A 0.50005 0.50005 0 0 1 8 14.5 L 8 8.5 A 0.50005 0.50005 0 0 1 8.5 8 z M 17.5 8 L 23.5 8 A 0.50005 0.50005 0 0 1 24 8.5 L 24 14.5 A 0.50005 0.50005 0 0 1 23.5 15 L 17.5 15 A 0.50005 0.50005 0 0 1 17 14.5 L 17 8.5 A 0.50005 0.50005 0 0 1 17.5 8 z M 9 9 L 9 14 L 14 14 L 14 9 L 9 9 z M 18 9 L 18 14 L 23 14 L 23 9 L 18 9 z M 8.5 17 L 14.5 17 A 0.50005 0.50005 0 0 1 15 17.5 L 15 23.5 A 0.50005 0.50005 0 0 1 14.5 24 L 8.5 24 A 0.50005 0.50005 0 0 1 8 23.5 L 8 17.5 A 0.50005 0.50005 0 0 1 8.5 17 z M 17.5 17 L 23.5 17 A 0.50005 0.50005 0 0 1 24 17.5 L 24 23.5 A 0.50005 0.50005 0 0 1 23.5 24 L 17.5 24 A 0.50005 0.50005 0 0 1 17 23.5 L 17 17.5 A 0.50005 0.50005 0 0 1 17.5 17 z M 9 18 L 9 23 L 14 23 L 14 18 L 9 18 z M 18 18 L 18 23 L 23 23 L 23 18 L 18 18 z " transform="translate(0,1020.3622)" fill="#000" fill-opacity="1" fill-rule="evenodd" stroke="#fff"/>
    </g>
    <circle cx="17" cy="17" r="15" fill="none" stroke="#000" stroke-width="3" />
</svg>
